<svg width="52" height="20" viewBox="0 0 52 20" fill="none" xmlns="http://www.w3.org/2000/svg">
<rect width="52" height="20" rx="10" fill="#F2994A"/>
<path d="M12.0781 14V5.46875H14.5977C15.5117 5.46875 16.2051 5.6582 16.6777 6.03711C17.1504 6.41211 17.3867 6.9668 17.3867 7.70117C17.3867 8.14258 17.2656 8.52734 17.0234 8.85547C16.7852 9.17969 16.457 9.41211 16.0391 9.55273C16.5352 9.66211 16.9336 9.90625 17.2344 10.2852C17.5391 10.6641 17.6914 11.1016 17.6914 11.5977C17.6914 12.3516 17.4473 12.9414 16.959 13.3672C16.4746 13.7891 15.7988 14 14.9316 14H12.0781ZM12.7988 9.89844V13.3906H14.9609C15.5781 13.3906 16.0664 13.2344 16.4258 12.9219C16.7891 12.6055 16.9707 12.168 16.9707 11.6094C16.9707 11.082 16.7969 10.666 16.4492 10.3613C16.1055 10.0527 15.6289 9.89844 15.0195 9.89844H12.7988ZM12.7988 9.29492H14.7676C15.3691 9.2832 15.834 9.14258 16.1621 8.87305C16.4941 8.59961 16.6602 8.20312 16.6602 7.68359C16.6602 7.13672 16.4883 6.73438 16.1445 6.47656C15.8047 6.21484 15.2891 6.08398 14.5977 6.08398H12.7988V9.29492ZM24.1484 9.91016H20.1582V13.3906H24.7461V14H19.4375V5.46875H24.7168V6.08398H20.1582V9.30078H24.1484V9.91016ZM32.1758 6.08398H29.252V14H28.5312V6.08398H25.6133V5.46875H32.1758V6.08398ZM37.6953 11.6094H33.8223L32.9434 14H32.1875L35.416 5.46875H36.1016L39.3301 14H38.5801L37.6953 11.6094ZM34.0449 10.9941H37.4668L35.7559 6.34766L34.0449 10.9941Z" fill="white"/>
</svg>
